HIERARCHY
ROOT Hips
{
	OFFSET -0.001795 -0.223333 0.028219
	CHANNELS 6 Xposition Yposition Zposition Zrotation Yrotation Xrotation 
	JOINT LeftUpLeg
	{
		OFFSET 0.069520 -0.091406 -0.006815
		CHANNELS 3 Zrotation Yrotation Xrotation
		JOINT LeftLeg
		{
			OFFSET 0.034277 -0.375199 -0.004496
			CHANNELS 3 Zrotation Yrotation Xrotation
			JOINT LeftFoot
			{
				OFFSET -0.013596 -0.397961 -0.043693
				CHANNELS 3 Zrotation Yrotation Xrotation
				JOINT LeftToe
				{
					OFFSET 0.026358 -0.055791 0.119288
					CHANNELS 3 Zrotation Yrotation Xrotation
					End Site
					{
						OFFSET 0.000000 0.000000 0.000000
					}
				}
			}
		}
	}
	JOINT RightUpLeg
	{
		OFFSET -0.067670 -0.090522 -0.004320
		CHANNELS 3 Zrotation Yrotation Xrotation
		JOINT RightLeg
		{
			OFFSET -0.038290 -0.382569 -0.008850
			CHANNELS 3 Zrotation Yrotation Xrotation
			JOINT RightFoot
			{
				OFFSET 0.015774 -0.398415 -0.042312
				CHANNELS 3 Zrotation Yrotation Xrotation
				JOINT RightToe
				{
					OFFSET -0.025372 -0.048144 0.123348
					CHANNELS 3 Zrotation Yrotation Xrotation
					End Site
					{
						OFFSET 0.000000 0.000000 0.000000
					}
				}
			}
		}
	}
	JOINT Spine
	{
		OFFSET -0.002533 0.108963 -0.026696
		CHANNELS 3 Zrotation Yrotation Xrotation
		JOINT Spine1
		{
			OFFSET 0.005487 0.135180 0.001092
			CHANNELS 3 Zrotation Yrotation Xrotation
			JOINT Spine2
			{
				OFFSET 0.001457 0.052922 0.025425
				CHANNELS 3 Zrotation Yrotation Xrotation
				JOINT Neck
				{
					OFFSET -0.002778 0.213870 -0.042857
					CHANNELS 3 Zrotation Yrotation Xrotation
					JOINT Head
					{
						OFFSET 0.005152 0.064970 0.051349
						CHANNELS 3 Zrotation Yrotation Xrotation
						End Site
						{
							OFFSET 0.000000 0.000000 0.000000
						}
					}
				}
				JOINT LeftShoulder
				{
					OFFSET 0.078845 0.121749 -0.034090
					CHANNELS 3 Zrotation Yrotation Xrotation
					JOINT LeftArm
					{
						OFFSET 0.090977 0.030469 -0.008868
						CHANNELS 3 Zrotation Yrotation Xrotation
						JOINT LeftForeArm
						{
							OFFSET 0.259612 -0.012772 -0.027456
							CHANNELS 3 Zrotation Yrotation Xrotation
							JOINT LeftHand
							{
								OFFSET 0.249234 0.008986 -0.001171
								CHANNELS 3 Zrotation Yrotation Xrotation
								End Site
								{
									OFFSET 0.000000 0.000000 0.000000
								}
							}
						}
					}
				}
				JOINT RightShoulder
				{
					OFFSET -0.081759 0.118833 -0.038615
					CHANNELS 3 Zrotation Yrotation Xrotation
					JOINT RightArm
					{
						OFFSET -0.096012 0.032551 -0.009143
						CHANNELS 3 Zrotation Yrotation Xrotation
						JOINT RightForeArm
						{
							OFFSET -0.253742 -0.013329 -0.021401
							CHANNELS 3 Zrotation Yrotation Xrotation
							JOINT RightHand
							{
								OFFSET -0.255298 0.007772 -0.005559
								CHANNELS 3 Zrotation Yrotation Xrotation
								End Site
								{
									OFFSET 0.000000 0.000000 0.000000
								}
							}
						}
					}
				}
			}
		}
	}
}
MOTION
Frames: 10
Frame Time: 0.050000
-0.046084 0.891167 -0.594632 0.640522 -1.447955 -4.546432 6.848899 -0.672668 -23.085079 -7.130866 0.844151 0.786347 5.233152 13.890692 20.323044 0.000000 0.000000 0.000000 -0.996290 -1.315914 15.245778 3.954540 -0.160591 25.969399 -4.118979 -9.284237 -3.355688 0.000000 0.000000 0.000000 -7.374297 0.337378 14.409515 7.000901 -1.635962 -18.973832 2.623207 8.651671 21.314478 -8.002932 6.591076 -37.601640 0.000000 0.000000 0.000000 -38.332596 -3.561600 -4.538130 -36.878802 -6.463718 -2.667384 -22.046759 -32.736791 7.534463 0.000000 0.000000 0.000000 18.211540 18.038065 10.246949 36.189529 16.489683 -0.690646 8.927011 50.216592 6.841567 0.000000 0.000000 0.000000 
-0.052138 0.892170 -0.655567 -0.130754 -1.433698 -4.048828 8.511833 -0.351361 -24.307313 -6.902553 0.686162 -3.865402 4.977775 13.897024 23.128862 0.000000 0.000000 0.000000 0.944679 -1.339519 12.593186 4.273737 -0.311836 22.796516 -5.262104 -11.166756 -7.720297 0.000000 0.000000 0.000000 -4.663412 0.014281 15.201799 7.488508 -1.850475 -18.174280 0.853209 7.731668 20.555161 -6.052910 5.664300 -38.522068 0.000000 0.000000 0.000000 -38.968273 -1.623664 -5.828217 -36.958783 -5.289749 -3.028422 -20.849728 -30.652204 6.727277 0.000000 0.000000 0.000000 17.563450 18.548739 10.193245 39.105249 17.285859 -0.194123 7.957156 48.327042 6.070872 0.000000 0.000000 0.000000 
-0.057098 0.903409 -0.708860 0.212487 -1.634775 -4.018268 8.760731 -0.275859 -23.564987 -7.499520 0.755791 -3.343829 4.791798 13.194558 19.536397 0.000000 0.000000 0.000000 1.337325 -1.158014 10.503952 4.062799 -0.262227 20.186250 -4.950529 -10.109590 -7.933106 0.000000 0.000000 0.000000 -4.175972 -0.040614 15.560048 7.109040 -1.599294 -19.678461 1.454511 7.433074 22.752661 -5.408829 5.395048 -38.325759 0.000000 0.000000 0.000000 -39.769945 -2.652934 -4.830106 -36.524814 -4.033424 -3.543019 -19.949323 -27.148505 5.748899 0.000000 0.000000 0.000000 17.774641 16.756698 9.219322 41.760736 16.717741 -0.456168 9.978887 46.177260 6.668152 0.000000 0.000000 0.000000 
-0.060793 0.921103 -0.754067 0.505066 -1.748486 -3.298139 8.128581 -0.402426 -22.792251 -7.348386 0.925612 2.444788 5.864230 14.084081 14.306454 0.000000 0.000000 0.000000 1.349687 -1.099263 9.935037 3.094925 -0.079152 15.148358 -4.404933 -9.367672 -5.316559 0.000000 0.000000 0.000000 -4.627957 0.028249 14.524435 7.812711 -1.823334 -19.386267 1.399255 6.619661 23.116280 -4.468271 4.926054 -36.261776 0.000000 0.000000 0.000000 -40.179728 -2.189540 -4.761051 -37.093832 -3.284272 -3.959637 -18.996375 -24.224497 4.936623 0.000000 0.000000 0.000000 17.719969 16.433877 8.841949 43.697834 15.072926 -0.929335 10.714906 43.382823 6.395910 0.000000 0.000000 0.000000 
-0.062526 0.938217 -0.793377 0.856879 -1.593715 -2.190482 6.896767 -0.649557 -21.754940 -6.959388 1.118589 10.692160 5.677380 13.360900 10.428601 0.000000 0.000000 0.000000 1.998022 -1.009598 8.464654 1.732062 0.123596 11.212432 -4.119973 -9.811540 -1.548578 0.000000 0.000000 0.000000 -4.541833 0.027411 13.334583 7.741136 -1.735368 -19.863506 0.884938 5.342251 23.752316 -3.806271 4.468449 -36.219306 0.000000 0.000000 0.000000 -39.283018 -1.224585 -4.689270 -38.205627 -2.616803 -4.520761 -18.362750 -22.625181 4.517811 0.000000 0.000000 0.000000 18.268688 15.503332 8.211913 45.019460 11.920523 -2.076142 11.519855 41.247545 6.263655 0.000000 0.000000 0.000000 
-0.062464 0.950120 -0.828935 1.462933 -1.229759 -1.184745 5.732546 -0.799475 -19.081047 -7.539411 1.486442 17.444074 6.112219 13.528054 5.688446 0.000000 0.000000 0.000000 0.915749 -0.685812 6.293171 1.656977 0.053519 8.446561 -3.676032 -9.720663 1.835695 0.000000 0.000000 0.000000 -5.039859 0.098992 13.212278 7.566385 -1.497736 -21.575053 1.003166 4.770092 24.675259 -3.726151 4.383481 -35.118401 0.000000 0.000000 0.000000 -39.231906 -1.156068 -4.509085 -37.956078 -1.954404 -4.790647 -18.050919 -21.369409 4.210284 0.000000 0.000000 0.000000 19.365657 13.989294 7.507077 45.346027 8.835644 -3.281614 11.772331 38.607849 5.853304 0.000000 0.000000 0.000000 
-0.060938 0.954869 -0.861253 1.319382 -1.609623 -0.539067 5.153945 -0.730179 -15.414045 -7.957960 1.871918 22.793391 6.389880 13.476646 1.362246 0.000000 0.000000 0.000000 0.781589 -0.429988 3.932062 1.992212 -0.033009 7.179941 -3.236486 -9.047801 3.009858 0.000000 0.000000 0.000000 -4.371961 0.031022 12.538722 7.160071 -1.333872 -22.137487 0.868696 3.539935 24.657350 -3.260707 3.953743 -35.335729 0.000000 0.000000 0.000000 -39.129926 -0.336461 -4.349822 -38.135989 -1.721610 -5.101114 -17.757438 -20.719763 4.066182 0.000000 0.000000 0.000000 19.444018 13.092990 6.654838 45.442985 6.574498 -4.020871 12.899272 35.810959 5.603301 0.000000 0.000000 0.000000 
-0.058021 0.955951 -0.891071 1.173207 -1.475649 -0.063037 4.797627 -0.532519 -10.051210 -8.121559 1.983180 24.174772 6.853798 14.183475 -0.462742 0.000000 0.000000 0.000000 0.316422 -0.167055 1.573826 2.592661 -0.147156 6.501216 -2.426660 -7.793782 4.827810 0.000000 0.000000 0.000000 -3.387795 -0.081093 12.256823 6.883404 -1.194206 -22.805177 -0.136463 2.304044 24.666959 -2.845516 3.574045 -33.788966 0.000000 0.000000 0.000000 -39.276875 0.321998 -4.281680 -37.392903 -2.407199 -4.978113 -17.700486 -20.118043 3.960891 0.000000 0.000000 0.000000 20.139177 12.076069 5.870572 44.761901 4.421809 -4.673766 14.015945 33.384706 5.412995 0.000000 0.000000 0.000000 
-0.053390 0.955127 -0.919609 0.528605 -1.124114 0.369224 4.783349 -0.286692 -4.781434 -7.426132 1.661347 22.917864 6.684520 13.691369 -1.542052 0.000000 0.000000 0.000000 0.417735 0.114965 -1.223399 3.177389 -0.238368 6.991467 -2.131730 -7.418838 5.725754 0.000000 0.000000 0.000000 -2.870181 -0.135227 11.401830 7.555500 -1.393189 -22.412422 -0.930244 1.262587 24.523831 -2.369297 3.235853 -34.316960 0.000000 0.000000 0.000000 -39.306598 0.642144 -4.115005 -36.989170 -2.650086 -4.967919 -17.993261 -20.633676 4.145720 0.000000 0.000000 0.000000 20.677057 11.077021 5.133160 44.399855 2.854614 -5.117453 14.429394 31.122214 5.054551 0.000000 0.000000 0.000000 
-0.046750 0.951564 -0.949020 -0.337857 -0.537615 0.552542 4.268262 -0.004610 0.879543 -5.646385 0.984902 20.347946 5.365177 11.195630 -0.094639 0.000000 0.000000 0.000000 0.847590 0.393943 -3.865890 3.586313 -0.305827 8.043169 -2.538186 -8.201228 5.515633 0.000000 0.000000 0.000000 -2.149808 -0.225641 11.440912 7.989442 -1.546176 -21.910475 -1.864475 0.152664 23.986121 -1.151952 2.564494 -34.508179 0.000000 0.000000 0.000000 -38.787214 -0.836892 -2.498766 -37.014480 -3.246917 -4.888580 -17.175524 -22.085282 4.303577 0.000000 0.000000 0.000000 21.648128 10.550789 4.661385 44.302072 1.378909 -5.503431 13.372399 29.504379 4.440310 0.000000 0.000000 0.000000 
